<svg id="svg" version="1.1" width="400" height="400" xmlns="http://www.w3.org/2000/svg" xmlns:xlink="http://www.w3.org/1999/xlink" style="display: block;"><g id="svgg"><path id="path0" d="M192.400 85.446 C 174.044 87.603,156.948 97.407,147.543 111.170 C 145.547 114.091,143.202 118.332,143.201 119.025 C 143.200 119.259,142.852 120.171,142.426 121.052 C 142.000 121.933,141.532 123.182,141.386 123.827 C 141.240 124.472,140.800 125.900,140.408 127.000 C 140.016 128.100,139.573 129.735,139.424 130.634 C 138.953 133.462,137.993 134.545,134.813 135.833 C 127.572 138.766,127.600 138.673,127.600 160.110 C 127.600 180.055,127.478 179.266,131.043 182.313 C 134.723 185.459,143.489 185.734,144.186 182.726 C 144.304 182.217,144.470 171.990,144.554 160.000 C 144.705 138.577,144.884 135.198,146.143 130.000 C 150.559 111.767,169.068 95.759,189.600 92.417 C 191.250 92.148,193.464 91.764,194.520 91.564 C 203.431 89.874,218.916 92.796,229.000 98.069 C 239.079 103.341,250.644 114.675,252.603 121.200 C 252.768 121.750,253.256 122.901,253.689 123.758 C 254.490 125.345,255.097 127.337,256.210 132.033 C 257.041 135.542,256.905 193.589,256.059 196.121 C 255.424 198.021,253.974 199.642,251.417 201.308 C 244.446 205.849,244.959 216.087,252.337 219.669 C 263.609 225.142,272.376 211.695,263.963 201.836 C 261.759 199.253,261.765 199.290,262.621 194.023 C 264.047 185.253,264.298 184.758,267.613 184.198 C 270.268 183.749,273.358 180.445,273.971 177.400 C 274.810 173.233,274.402 143.048,273.479 141.000 C 272.431 138.675,270.999 137.365,268.450 136.402 C 267.213 135.934,265.753 135.332,265.206 135.063 C 263.862 134.404,262.510 131.876,262.189 129.420 C 260.875 119.365,253.201 107.176,243.455 99.667 C 237.446 95.037,229.602 90.421,226.000 89.396 C 225.450 89.239,224.460 88.877,223.800 88.590 C 216.747 85.527,203.230 84.174,192.400 85.446 M191.800 101.402 C 171.789 103.963,158.382 119.130,158.388 139.200 C 158.388 140.410,158.324 143.920,158.246 147.000 C 158.167 150.080,158.080 153.718,158.051 155.085 C 158.003 157.407,157.899 157.670,156.466 159.085 C 153.105 162.404,152.703 167.368,154.962 177.674 C 155.789 181.452,159.097 187.947,162.447 192.371 C 165.055 195.814,167.186 199.528,167.196 200.644 C 167.204 201.558,170.389 207.909,172.300 210.823 C 177.637 218.959,184.632 224.216,193.200 226.531 C 210.025 231.077,227.764 220.330,234.348 201.600 C 235.717 197.707,236.283 196.657,238.700 193.530 C 245.315 184.970,247.618 179.155,247.897 170.315 C 248.153 162.185,248.002 161.442,245.664 159.296 L 243.800 157.585 243.557 145.093 C 243.366 135.289,243.172 132.101,242.657 130.280 C 242.295 129.005,242.000 127.669,242.000 127.312 C 242.000 126.956,241.420 125.389,240.712 123.832 C 232.687 106.195,215.595 98.356,191.800 101.402 M162.800 226.018 C 162.030 226.420,160.410 227.192,159.200 227.734 C 157.990 228.275,155.992 229.187,154.760 229.759 C 153.528 230.332,152.381 230.800,152.210 230.800 C 152.040 230.800,150.888 231.240,149.650 231.778 C 148.413 232.316,143.890 234.229,139.600 236.028 C 127.317 241.180,122.732 243.981,116.792 249.963 C 111.566 255.226,103.600 267.088,103.600 269.606 C 103.600 269.851,103.162 271.009,102.627 272.179 C 102.092 273.349,101.537 275.002,101.395 275.853 C 101.253 276.704,100.884 278.070,100.576 278.889 C 98.964 283.171,98.624 296.220,100.044 299.336 C 101.186 301.842,108.153 304.949,114.153 305.627 C 115.939 305.829,118.660 306.269,120.200 306.606 C 121.740 306.942,124.476 307.390,126.279 307.601 C 128.083 307.812,130.873 308.243,132.479 308.559 C 134.086 308.874,137.200 309.338,139.400 309.590 C 141.600 309.841,144.930 310.297,146.800 310.602 C 148.670 310.908,152.540 311.350,155.400 311.585 C 158.260 311.819,162.580 312.286,165.000 312.622 C 177.704 314.386,223.215 314.665,233.600 313.043 C 236.944 312.521,241.864 311.966,248.183 311.397 C 251.914 311.061,255.604 310.622,256.383 310.421 C 257.163 310.220,259.870 309.849,262.400 309.597 C 264.930 309.345,268.170 308.890,269.600 308.586 C 271.030 308.282,273.910 307.838,276.000 307.599 C 278.090 307.360,280.790 306.918,282.000 306.616 C 283.210 306.314,285.730 305.869,287.600 305.628 C 299.475 304.094,302.800 301.188,302.800 292.345 C 302.800 282.950,300.848 274.969,296.065 264.800 C 293.486 259.317,287.269 251.005,283.694 248.258 C 282.507 247.346,280.785 246.014,279.868 245.297 C 277.667 243.578,269.497 238.800,268.758 238.800 C 268.439 238.800,267.784 238.524,267.303 238.187 C 266.822 237.850,265.747 237.322,264.914 237.013 C 263.482 236.481,261.858 235.806,254.800 232.806 C 253.150 232.105,251.080 231.293,250.200 231.001 C 248.433 230.415,244.558 228.696,240.072 226.506 C 236.346 224.688,235.916 224.984,235.000 230.001 C 232.876 241.629,228.906 255.625,225.072 265.000 C 223.104 269.812,222.742 270.633,221.780 272.454 C 221.241 273.474,220.800 274.500,220.800 274.734 C 220.800 276.422,210.711 292.649,205.690 299.037 C 201.854 303.918,200.543 303.994,196.816 299.550 C 190.904 292.503,180.914 275.769,178.099 268.200 C 177.854 267.540,177.094 265.560,176.410 263.800 C 172.893 254.745,168.213 237.817,166.568 228.200 C 166.027 225.035,165.389 224.666,162.800 226.018 M192.500 240.596 C 190.988 241.253,190.813 242.403,191.799 245.197 C 192.129 246.131,192.614 248.518,192.878 250.501 C 193.598 255.904,193.439 255.800,200.945 255.800 C 208.262 255.800,207.767 256.098,208.969 250.958 C 211.656 239.471,212.023 239.993,201.278 240.016 C 195.745 240.027,193.462 240.178,192.500 240.596 M195.386 260.758 C 194.067 261.330,193.666 262.083,193.227 264.815 C 192.998 266.237,192.448 268.703,192.005 270.295 C 190.518 275.640,190.636 276.036,197.332 288.200 C 200.622 294.177,201.255 294.513,202.832 291.111 C 203.364 289.962,204.619 287.757,205.621 286.211 C 209.384 280.401,210.001 278.545,209.995 273.055 C 209.989 268.210,208.671 262.511,207.219 261.059 C 206.678 260.518,196.534 260.260,195.386 260.758 " stroke="none" fill="#ffffff" fill-rule="evenodd"></path><path id="path1" d="M63.600 50.200 C 63.192 50.691,63.220 50.800,63.751 50.800 C 64.108 50.800,64.400 50.530,64.400 50.200 C 64.400 49.870,64.332 49.600,64.249 49.600 C 64.166 49.600,63.874 49.870,63.600 50.200 M5.390 142.430 C 5.012 143.622,5.327 143.715,5.867 142.571 C 6.119 142.037,6.174 141.600,5.989 141.600 C 5.805 141.600,5.535 141.974,5.390 142.430 M399.301 171.000 C 399.305 171.880,399.387 172.193,399.483 171.695 C 399.579 171.198,399.575 170.478,399.475 170.095 C 399.375 169.713,399.296 170.120,399.301 171.000 M399.301 228.200 C 399.305 229.080,399.387 229.393,399.483 228.895 C 399.579 228.398,399.575 227.678,399.475 227.295 C 399.375 226.913,399.296 227.320,399.301 228.200 M397.400 240.800 C 397.250 241.273,397.217 241.750,397.327 241.860 C 397.437 241.970,397.650 241.673,397.800 241.200 C 397.950 240.727,397.983 240.250,397.873 240.140 C 397.763 240.030,397.550 240.327,397.400 240.800 M5.200 256.100 C 5.200 256.459,5.392 256.871,5.627 257.016 C 6.313 257.440,6.380 257.061,5.767 256.223 C 5.293 255.574,5.200 255.554,5.200 256.100 M161.700 398.276 C 162.085 398.376,162.715 398.376,163.100 398.276 C 163.485 398.175,163.170 398.093,162.400 398.093 C 161.630 398.093,161.315 398.175,161.700 398.276 M170.100 399.476 C 170.485 399.576,171.115 399.576,171.500 399.476 C 171.885 399.375,171.570 399.293,170.800 399.293 C 170.030 399.293,169.715 399.375,170.100 399.476 M227.700 399.476 C 228.085 399.576,228.715 399.576,229.100 399.476 C 229.485 399.375,229.170 399.293,228.400 399.293 C 227.630 399.293,227.315 399.375,227.700 399.476 " stroke="none" fill="#0000ff" fill-rule="evenodd"></path><path id="path2" d="M169.003 0.395 C 168.865 0.618,167.788 0.800,166.610 0.800 C 165.431 0.800,164.407 0.960,164.333 1.155 C 164.260 1.351,162.527 1.605,160.483 1.721 C 158.439 1.836,156.524 2.131,156.229 2.376 C 155.934 2.621,154.496 2.933,153.033 3.070 C 151.571 3.206,150.279 3.472,150.164 3.659 C 150.048 3.847,149.535 4.000,149.025 4.000 C 148.515 4.000,147.874 4.270,147.600 4.600 C 147.298 4.963,146.423 5.200,145.380 5.200 C 144.382 5.200,143.405 5.452,143.057 5.800 C 142.727 6.130,142.007 6.400,141.457 6.400 C 140.907 6.400,140.187 6.670,139.857 7.000 C 139.504 7.354,138.526 7.600,137.478 7.600 C 136.384 7.600,135.506 7.831,135.200 8.200 C 134.926 8.530,134.454 8.800,134.151 8.800 C 133.848 8.800,133.600 8.980,133.600 9.200 C 133.600 9.420,132.803 9.600,131.829 9.600 C 130.787 9.600,129.810 9.847,129.457 10.200 C 129.127 10.530,128.529 10.801,128.129 10.802 C 127.728 10.804,126.884 11.074,126.254 11.402 C 125.624 11.731,124.853 12.000,124.542 12.000 C 124.230 12.000,123.871 12.270,123.745 12.600 C 123.617 12.934,123.022 13.200,122.406 13.200 C 121.797 13.200,121.074 13.470,120.800 13.800 C 120.526 14.130,120.041 14.400,119.722 14.400 C 119.404 14.400,118.873 14.670,118.543 15.000 C 118.213 15.330,117.478 15.600,116.909 15.600 C 116.341 15.600,115.286 16.050,114.564 16.600 C 113.843 17.150,112.903 17.600,112.476 17.600 C 112.048 17.600,111.474 17.870,111.200 18.200 C 110.926 18.530,110.383 18.800,109.994 18.800 C 109.604 18.800,109.182 19.070,109.055 19.400 C 108.929 19.730,108.378 20.000,107.832 20.000 C 107.286 20.000,106.696 20.239,106.520 20.530 C 106.201 21.059,101.271 23.600,100.564 23.600 C 100.359 23.600,99.707 24.050,99.113 24.600 C 98.520 25.150,97.751 25.600,97.404 25.600 C 97.057 25.600,96.245 26.140,95.600 26.800 C 94.955 27.460,94.061 28.000,93.613 28.000 C 93.166 28.000,92.798 28.225,92.796 28.500 C 92.794 28.775,91.984 29.355,90.996 29.790 C 90.008 30.224,89.200 30.699,89.200 30.846 C 89.200 30.993,88.750 31.226,88.200 31.364 C 87.650 31.502,87.200 31.792,87.200 32.008 C 87.200 32.223,86.949 32.400,86.643 32.400 C 86.336 32.400,85.982 32.670,85.855 33.000 C 85.729 33.330,85.286 33.600,84.872 33.600 C 84.458 33.600,83.706 34.140,83.200 34.800 C 82.694 35.460,82.129 36.000,81.945 36.000 C 81.376 36.000,80.029 37.323,80.244 37.671 C 80.356 37.852,79.981 38.000,79.411 38.000 C 78.841 38.000,78.271 38.270,78.145 38.600 C 78.018 38.930,77.664 39.200,77.357 39.200 C 77.051 39.200,76.800 39.450,76.800 39.757 C 76.800 40.063,76.350 40.426,75.800 40.564 C 75.250 40.702,74.800 40.992,74.800 41.208 C 74.800 41.423,74.530 41.600,74.200 41.600 C 73.870 41.600,73.600 41.870,73.600 42.200 C 73.600 42.530,73.349 42.800,73.043 42.800 C 72.736 42.800,72.382 43.070,72.255 43.400 C 72.129 43.730,71.778 44.000,71.476 44.000 C 71.174 44.000,69.872 44.990,68.582 46.200 C 67.292 47.410,66.094 48.400,65.918 48.400 C 65.743 48.400,65.600 48.670,65.600 49.000 C 65.600 49.330,65.330 49.600,65.000 49.600 C 64.670 49.600,64.400 49.870,64.400 50.200 C 64.400 50.530,64.205 50.800,63.968 50.800 C 63.730 50.800,62.200 52.135,60.568 53.768 C 58.935 55.400,57.600 56.930,57.600 57.168 C 57.600 57.405,57.405 57.600,57.168 57.600 C 56.930 57.600,55.400 58.935,53.768 60.568 C 52.135 62.200,50.800 63.730,50.800 63.968 C 50.800 64.205,50.530 64.400,50.200 64.400 C 49.870 64.400,49.600 64.670,49.600 65.000 C 49.600 65.330,49.420 65.600,49.200 65.600 C 48.775 65.600,47.200 67.042,47.200 67.431 C 47.200 67.558,46.655 68.207,45.988 68.873 C 45.322 69.540,44.507 70.606,44.178 71.242 C 43.849 71.879,43.404 72.400,43.190 72.400 C 42.975 72.400,42.800 72.670,42.800 73.000 C 42.800 73.330,42.530 73.600,42.200 73.600 C 41.870 73.600,41.600 73.870,41.600 74.200 C 41.600 74.530,41.432 74.800,41.227 74.800 C 41.022 74.800,40.737 75.169,40.594 75.620 C 40.451 76.071,39.763 77.040,39.067 77.773 C 36.612 80.355,36.000 81.117,36.000 81.592 C 36.000 81.856,35.505 82.595,34.900 83.235 C 34.295 83.874,33.694 84.803,33.565 85.299 C 33.435 85.794,33.120 86.155,32.865 86.100 C 32.609 86.045,32.400 86.270,32.400 86.600 C 32.400 86.930,32.232 87.200,32.027 87.200 C 31.822 87.200,31.528 87.605,31.373 88.100 C 31.219 88.595,30.981 89.090,30.846 89.200 C 30.489 89.490,29.659 90.859,29.209 91.900 C 28.995 92.395,28.635 92.800,28.410 92.800 C 28.184 92.800,28.000 93.186,28.000 93.657 C 28.000 94.128,27.460 95.029,26.800 95.660 C 26.140 96.291,25.600 97.146,25.600 97.561 C 25.600 97.975,25.370 98.403,25.089 98.510 C 24.808 98.618,24.074 99.763,23.458 101.053 C 21.237 105.705,21.017 106.095,20.512 106.289 C 20.230 106.397,20.000 107.006,20.000 107.643 C 20.000 108.279,19.865 108.801,19.700 108.803 C 19.218 108.807,17.600 111.384,17.600 112.146 C 17.600 112.529,17.150 113.505,16.600 114.314 C 16.050 115.123,15.600 116.160,15.600 116.616 C 15.600 117.073,15.336 117.796,15.013 118.224 C 14.690 118.651,14.420 119.476,14.413 120.057 C 14.406 120.639,14.130 121.218,13.800 121.345 C 13.470 121.471,13.200 122.011,13.200 122.545 C 13.200 123.078,12.930 123.618,12.600 123.745 C 12.270 123.871,11.994 124.386,11.987 124.887 C 11.980 125.389,11.710 126.149,11.387 126.576 C 11.064 127.004,10.800 127.746,10.800 128.227 C 10.800 128.708,10.530 129.326,10.200 129.600 C 9.837 129.901,9.600 130.777,9.600 131.816 C 9.600 132.760,9.465 133.593,9.300 133.667 C 8.664 133.949,7.600 136.526,7.600 137.783 C 7.600 138.509,7.330 139.326,7.000 139.600 C 6.670 139.874,6.400 140.515,6.400 141.025 C 6.400 141.535,6.230 142.058,6.023 142.186 C 5.816 142.314,5.536 143.269,5.400 144.309 C 5.265 145.349,4.895 146.678,4.577 147.262 C 4.260 147.846,4.000 148.690,4.000 149.138 C 4.000 149.586,3.844 150.049,3.653 150.168 C 3.461 150.286,3.176 151.691,3.019 153.291 C 2.861 154.891,2.532 156.441,2.287 156.736 C 2.043 157.030,1.766 158.875,1.673 160.836 C 1.579 162.796,1.344 164.400,1.151 164.400 C 0.958 164.400,0.800 165.354,0.800 166.520 C 0.800 167.686,0.618 168.822,0.395 169.045 C -0.059 169.499,0.105 228.780,0.570 232.200 C 0.719 233.300,0.998 234.560,1.190 235.000 C 1.381 235.440,1.634 237.392,1.752 239.339 C 1.870 241.285,2.149 243.097,2.371 243.365 C 2.594 243.633,2.897 244.881,3.044 246.138 C 3.192 247.394,3.467 248.518,3.656 248.635 C 3.845 248.752,4.000 249.355,4.000 249.975 C 4.000 250.595,4.270 251.326,4.600 251.600 C 4.930 251.874,5.200 252.724,5.200 253.489 C 5.200 254.253,5.460 255.446,5.777 256.140 C 6.094 256.833,6.413 257.850,6.486 258.400 C 6.559 258.950,6.840 259.355,7.109 259.300 C 7.442 259.232,7.602 259.814,7.605 261.100 C 7.608 262.384,7.932 263.564,8.605 264.741 C 9.152 265.698,9.601 266.958,9.602 267.541 C 9.604 268.123,9.857 269.083,10.165 269.673 C 10.473 270.263,10.845 271.296,10.993 271.968 C 11.141 272.641,11.428 273.294,11.631 273.419 C 11.834 273.545,12.000 274.002,12.000 274.436 C 12.000 274.870,12.270 275.329,12.600 275.455 C 12.930 275.582,13.200 276.122,13.200 276.655 C 13.200 277.189,13.470 277.729,13.800 277.855 C 14.142 277.987,14.400 278.583,14.400 279.243 C 14.400 279.934,14.594 280.360,14.882 280.300 C 15.397 280.193,15.472 280.445,15.550 282.542 C 15.581 283.366,15.985 284.299,16.600 284.962 C 17.150 285.556,17.600 286.365,17.600 286.761 C 17.600 287.156,18.140 288.225,18.800 289.137 C 19.460 290.048,20.000 291.130,20.000 291.542 C 20.000 291.954,20.537 292.901,21.194 293.646 C 21.850 294.391,22.390 295.405,22.394 295.900 C 22.397 296.395,22.546 296.800,22.725 296.800 C 22.904 296.800,23.448 297.655,23.933 298.700 C 24.419 299.745,25.171 301.140,25.604 301.800 C 26.037 302.460,26.502 303.225,26.638 303.500 C 26.774 303.775,27.136 304.000,27.443 304.000 C 27.777 304.000,28.000 304.418,28.000 305.042 C 28.000 305.616,28.540 306.767,29.200 307.600 C 29.860 308.433,30.400 309.304,30.400 309.535 C 30.400 309.766,30.759 310.206,31.197 310.513 C 31.636 310.820,31.876 311.191,31.731 311.336 C 31.586 311.481,31.657 311.600,31.890 311.600 C 32.123 311.600,32.422 312.035,32.556 312.567 C 32.689 313.098,33.519 314.283,34.399 315.199 C 35.280 316.116,36.000 317.084,36.000 317.350 C 36.000 317.617,36.720 318.608,37.600 319.551 C 38.480 320.495,39.200 321.347,39.200 321.444 C 39.200 321.820,42.188 325.600,42.485 325.600 C 42.658 325.600,42.800 325.788,42.800 326.017 C 42.800 326.434,43.184 326.979,44.500 328.429 C 44.885 328.853,45.200 329.309,45.200 329.443 C 45.200 329.577,46.145 330.622,47.300 331.765 C 48.455 332.908,50.054 334.644,50.853 335.622 C 52.390 337.502,54.080 339.265,56.641 341.656 C 57.498 342.457,59.523 344.482,61.140 346.156 C 62.757 347.830,64.250 349.200,64.459 349.200 C 64.668 349.200,66.055 350.415,67.543 351.900 C 70.132 354.486,71.096 355.277,72.389 355.879 C 72.712 356.030,73.432 356.614,73.989 357.177 C 75.246 358.448,78.224 360.800,78.577 360.800 C 78.721 360.800,79.235 361.225,79.719 361.744 C 80.204 362.264,81.005 362.816,81.500 362.971 C 81.995 363.127,82.400 363.422,82.400 363.627 C 82.400 363.832,82.651 364.000,82.957 364.000 C 83.264 364.000,83.618 364.270,83.745 364.600 C 83.871 364.930,84.251 365.200,84.587 365.200 C 84.924 365.200,85.200 365.377,85.200 365.592 C 85.200 365.808,85.650 366.098,86.200 366.236 C 86.750 366.374,87.202 366.692,87.205 366.943 C 87.207 367.195,87.927 367.744,88.805 368.164 C 89.682 368.585,90.400 369.065,90.400 369.233 C 90.400 369.400,90.940 369.655,91.600 369.800 C 92.260 369.945,92.800 370.229,92.800 370.432 C 92.800 370.634,93.141 370.800,93.557 370.800 C 93.974 370.800,94.418 371.070,94.545 371.400 C 94.671 371.730,95.051 372.000,95.387 372.000 C 95.724 372.000,96.000 372.184,96.000 372.410 C 96.000 372.635,96.405 372.995,96.900 373.209 C 98.104 373.730,99.339 374.516,99.667 374.970 C 99.814 375.174,100.317 375.399,100.785 375.471 C 101.253 375.542,102.121 376.050,102.714 376.600 C 103.328 377.170,104.272 377.600,104.908 377.600 C 105.532 377.600,106.127 377.865,106.255 378.200 C 106.382 378.530,106.897 378.800,107.400 378.800 C 107.903 378.800,108.418 379.070,108.545 379.400 C 108.671 379.730,109.051 380.000,109.387 380.000 C 109.724 380.000,110.000 380.177,110.000 380.392 C 110.000 380.608,110.495 380.908,111.100 381.059 C 111.705 381.211,113.030 381.844,114.044 382.467 C 115.059 383.090,116.364 383.600,116.944 383.600 C 117.525 383.600,118.000 383.760,118.000 383.957 C 118.000 384.153,118.450 384.426,119.000 384.564 C 119.550 384.702,120.000 384.992,120.000 385.208 C 120.000 385.423,120.726 385.600,121.613 385.600 C 122.677 385.600,123.303 385.804,123.455 386.200 C 123.583 386.534,124.178 386.800,124.794 386.800 C 125.403 386.800,126.126 387.070,126.400 387.400 C 126.674 387.730,127.214 388.000,127.600 388.000 C 127.986 388.000,128.526 388.270,128.800 388.600 C 129.074 388.930,129.625 389.200,130.025 389.200 C 130.425 389.200,130.849 389.356,130.968 389.547 C 131.086 389.739,131.946 390.017,132.879 390.166 C 133.812 390.315,134.688 390.619,134.825 390.841 C 134.963 391.063,136.093 391.350,137.337 391.478 C 138.582 391.607,139.600 391.867,139.600 392.056 C 139.600 392.245,139.973 392.400,140.429 392.400 C 140.884 392.400,141.527 392.670,141.857 393.000 C 142.256 393.398,143.254 393.600,144.829 393.600 C 146.512 393.600,147.171 393.745,147.100 394.100 C 147.042 394.390,147.505 394.657,148.200 394.735 C 148.860 394.810,149.613 395.047,149.872 395.261 C 150.132 395.476,151.392 395.755,152.672 395.880 C 153.953 396.006,155.235 396.294,155.521 396.521 C 156.145 397.015,158.755 397.539,162.678 397.958 C 164.261 398.127,165.791 398.453,166.078 398.682 C 168.064 400.264,229.908 400.157,233.460 398.565 C 234.154 398.254,235.414 398.000,236.261 398.000 C 238.228 398.000,243.252 396.956,243.563 396.483 C 243.693 396.285,244.962 396.004,246.382 395.859 C 247.803 395.714,249.144 395.416,249.362 395.198 C 249.581 394.979,250.161 394.800,250.651 394.800 C 251.142 394.800,251.813 394.530,252.143 394.200 C 252.495 393.848,253.473 393.600,254.512 393.600 C 255.599 393.600,256.960 393.239,258.043 392.663 C 259.012 392.148,260.681 391.627,261.752 391.507 C 262.823 391.386,263.812 391.110,263.949 390.893 C 264.087 390.676,265.010 390.366,266.000 390.204 C 266.990 390.042,267.980 389.775,268.200 389.610 C 268.420 389.445,269.095 389.192,269.700 389.048 C 270.305 388.903,270.800 388.608,270.800 388.392 C 270.800 388.177,271.126 388.000,271.524 388.000 C 271.921 388.000,272.596 387.736,273.024 387.413 C 273.451 387.090,274.121 386.820,274.513 386.813 C 274.904 386.806,275.329 386.530,275.455 386.200 C 275.606 385.806,276.231 385.600,277.269 385.600 C 278.343 385.600,279.276 385.278,280.164 384.600 C 280.886 384.050,281.941 383.600,282.509 383.600 C 283.078 383.600,283.789 383.375,284.090 383.100 C 284.908 382.352,287.184 381.200,287.845 381.200 C 288.164 381.200,288.529 380.930,288.655 380.600 C 288.782 380.270,289.114 380.000,289.394 380.000 C 289.673 380.000,290.126 379.730,290.400 379.400 C 290.674 379.070,291.217 378.800,291.606 378.800 C 291.996 378.800,292.403 378.570,292.511 378.289 C 292.619 378.007,293.309 377.731,294.045 377.675 C 294.781 377.619,295.531 377.309,295.711 376.987 C 295.892 376.664,296.301 376.400,296.620 376.400 C 296.939 376.400,297.200 376.220,297.200 376.000 C 297.200 375.780,297.524 375.600,297.920 375.600 C 298.316 375.600,298.841 375.399,299.086 375.154 C 299.598 374.642,300.962 373.830,302.366 373.202 C 302.898 372.964,303.620 372.439,303.970 372.034 C 304.525 371.395,305.941 370.564,311.386 367.683 C 312.038 367.338,312.959 366.638,313.432 366.128 C 313.905 365.618,314.496 365.200,314.746 365.200 C 314.996 365.200,315.200 364.974,315.200 364.698 C 315.200 364.421,315.730 363.961,316.377 363.674 C 317.750 363.067,322.511 359.610,323.779 358.301 C 324.660 357.391,325.724 356.618,326.769 356.128 C 327.083 355.981,328.028 355.172,328.869 354.331 C 329.711 353.489,330.499 352.800,330.620 352.800 C 330.939 352.800,333.596 349.856,333.598 349.500 C 333.599 349.335,333.891 349.200,334.246 349.200 C 335.121 349.200,339.634 344.787,339.321 344.237 C 339.184 343.997,339.218 343.932,339.397 344.094 C 339.823 344.480,349.200 335.041,349.200 334.226 C 349.200 333.882,349.470 333.600,349.800 333.600 C 350.130 333.600,350.400 333.330,350.400 333.000 C 350.400 332.670,350.535 332.445,350.700 332.500 C 351.002 332.601,352.800 330.973,352.800 330.600 C 352.800 330.489,353.494 329.724,354.343 328.900 C 355.191 328.075,356.013 326.995,356.170 326.500 C 356.326 326.005,356.622 325.600,356.827 325.600 C 357.032 325.600,357.200 325.440,357.200 325.245 C 357.200 325.050,358.105 323.927,359.210 322.750 C 361.101 320.736,364.000 316.391,364.000 315.571 C 364.000 315.367,364.270 315.200,364.600 315.200 C 364.930 315.200,365.200 315.020,365.200 314.800 C 365.200 314.580,365.515 314.053,365.900 313.629 C 367.224 312.169,367.600 311.633,367.600 311.200 C 367.600 310.962,367.977 310.369,368.438 309.883 C 368.900 309.397,369.439 308.640,369.637 308.200 C 369.836 307.760,370.207 307.040,370.462 306.600 C 371.341 305.086,371.607 304.597,372.100 303.600 C 372.372 303.050,372.918 302.244,373.313 301.808 C 373.708 301.372,374.130 300.620,374.252 300.137 C 374.373 299.653,374.726 299.161,375.036 299.041 C 375.346 298.922,375.600 298.459,375.600 298.013 C 375.600 297.566,375.739 297.200,375.909 297.200 C 376.079 297.200,376.545 296.525,376.944 295.700 C 377.343 294.875,377.924 293.690,378.235 293.068 C 378.546 292.445,378.800 291.686,378.800 291.381 C 378.800 291.077,379.340 290.275,380.000 289.600 C 380.660 288.925,381.200 287.944,381.200 287.420 C 381.200 286.895,381.343 286.407,381.517 286.333 C 382.174 286.057,383.600 283.264,383.600 282.253 C 383.600 281.674,383.780 281.200,384.000 281.200 C 384.220 281.200,384.400 280.952,384.400 280.649 C 384.400 280.346,384.634 279.903,384.921 279.666 C 385.207 279.428,385.487 278.463,385.543 277.520 C 385.601 276.532,385.888 275.670,386.222 275.484 C 386.540 275.306,386.800 274.719,386.800 274.180 C 386.800 273.641,386.977 273.200,387.192 273.200 C 387.408 273.200,387.709 272.707,387.860 272.104 C 388.011 271.501,388.375 270.768,388.667 270.475 C 389.128 270.015,389.371 268.658,389.308 266.904 C 389.298 266.632,389.432 266.496,389.606 266.604 C 389.780 266.711,390.110 266.259,390.340 265.600 C 390.570 264.940,390.633 264.397,390.479 264.394 C 390.326 264.391,390.450 264.230,390.755 264.037 C 391.060 263.843,391.398 262.766,391.506 261.643 C 391.613 260.519,391.859 259.600,392.051 259.600 C 392.243 259.600,392.406 259.285,392.413 258.900 C 392.420 258.515,392.690 257.851,393.013 257.424 C 393.343 256.987,393.600 255.792,393.600 254.695 C 393.600 253.493,393.831 252.512,394.200 252.143 C 394.530 251.813,394.800 251.116,394.800 250.595 C 394.800 250.074,394.962 249.547,395.161 249.424 C 395.359 249.302,395.651 248.076,395.809 246.701 C 395.967 245.325,396.253 244.100,396.446 243.978 C 396.922 243.675,397.588 240.484,398.016 236.459 C 398.211 234.621,398.538 232.911,398.742 232.659 C 400.126 230.947,400.055 168.232,398.666 166.083 C 398.482 165.799,398.178 164.269,397.990 162.683 C 397.492 158.484,396.879 155.497,396.462 155.232 C 396.177 155.051,395.608 152.366,395.424 150.333 C 395.411 150.187,395.265 149.932,395.100 149.767 C 394.935 149.602,394.800 148.970,394.800 148.362 C 394.800 147.754,394.530 146.987,394.200 146.657 C 393.844 146.302,393.600 145.324,393.600 144.257 C 393.600 143.190,393.356 142.213,393.000 141.857 C 392.670 141.527,392.400 140.884,392.400 140.429 C 392.400 139.973,392.220 139.600,392.000 139.600 C 391.780 139.600,391.599 138.925,391.598 138.100 C 391.596 137.275,391.333 136.097,391.012 135.483 C 390.692 134.869,390.313 133.742,390.170 132.979 C 390.026 132.216,389.750 131.493,389.555 131.372 C 389.360 131.251,389.200 130.800,389.200 130.369 C 389.200 129.938,388.660 128.573,388.000 127.336 C 387.340 126.099,386.800 124.747,386.800 124.331 C 386.800 123.915,386.530 123.471,386.200 123.345 C 385.870 123.218,385.600 122.690,385.600 122.171 C 385.600 121.277,384.479 118.430,383.958 118.000 C 383.824 117.890,383.595 117.147,383.449 116.349 C 383.302 115.551,382.741 114.421,382.201 113.839 C 381.662 113.257,381.216 112.695,381.210 112.590 C 381.205 112.486,381.200 112.046,381.200 111.614 C 381.200 111.181,380.660 110.275,380.000 109.600 C 379.340 108.925,378.800 107.948,378.800 107.429 C 378.800 106.910,378.530 106.382,378.200 106.255 C 377.870 106.129,377.600 105.569,377.600 105.013 C 377.600 104.456,377.440 104.000,377.243 104.000 C 377.047 104.000,376.774 103.550,376.636 103.000 C 376.498 102.450,376.208 102.000,375.992 102.000 C 375.777 102.000,375.600 101.653,375.600 101.229 C 375.600 100.804,375.365 100.219,375.078 99.929 C 374.790 99.638,374.432 99.074,374.280 98.675 C 374.129 98.276,373.862 98.038,373.686 98.147 C 373.510 98.256,373.339 97.992,373.307 97.560 C 373.274 97.129,372.697 96.080,372.024 95.230 C 371.351 94.380,370.800 93.501,370.800 93.276 C 370.800 93.051,370.665 92.807,370.500 92.733 C 370.335 92.660,369.750 91.730,369.200 90.666 C 367.809 87.976,367.481 87.432,366.797 86.683 C 365.539 85.303,365.200 84.820,365.200 84.404 C 365.200 84.168,364.953 83.880,364.650 83.764 C 364.348 83.648,363.763 82.889,363.350 82.077 C 362.938 81.264,362.510 80.510,362.400 80.400 C 362.290 80.290,361.488 79.300,360.617 78.200 C 359.746 77.100,358.666 75.828,358.217 75.374 C 357.359 74.507,356.584 73.409,356.118 72.400 C 355.729 71.559,355.387 71.164,352.000 67.644 C 348.713 64.228,347.485 62.800,347.837 62.800 C 347.962 62.800,347.301 62.125,346.367 61.300 C 345.433 60.475,342.763 57.910,340.434 55.600 C 336.858 52.052,332.887 48.309,328.944 44.769 C 328.473 44.346,327.932 44.000,327.743 44.000 C 327.554 44.000,326.341 43.008,325.048 41.795 C 323.755 40.582,322.271 39.482,321.749 39.351 C 321.227 39.220,320.800 38.863,320.800 38.557 C 320.800 38.250,320.612 38.000,320.383 38.000 C 320.153 38.000,319.480 37.550,318.887 37.000 C 318.293 36.450,317.571 36.000,317.282 36.000 C 316.992 36.000,316.270 35.490,315.677 34.866 C 314.362 33.481,310.962 31.200,310.213 31.200 C 309.913 31.200,309.607 31.064,309.533 30.897 C 309.294 30.354,306.098 28.000,305.600 28.000 C 305.333 28.000,304.459 27.484,303.658 26.853 C 302.856 26.223,301.795 25.581,301.300 25.426 C 300.805 25.272,300.400 24.978,300.400 24.773 C 300.400 24.568,300.130 24.400,299.800 24.400 C 299.470 24.400,299.200 24.234,299.200 24.032 C 299.200 23.829,298.662 23.545,298.005 23.401 C 297.347 23.257,296.706 22.972,296.581 22.769 C 296.455 22.566,295.998 22.400,295.564 22.400 C 295.130 22.400,294.671 22.130,294.545 21.800 C 294.418 21.470,293.884 21.200,293.357 21.200 C 292.773 21.200,292.400 20.966,292.400 20.600 C 292.400 20.227,292.022 20.000,291.400 20.000 C 290.850 20.000,290.400 19.823,290.400 19.608 C 290.400 19.392,289.957 19.104,289.416 18.968 C 288.875 18.833,288.223 18.469,287.967 18.161 C 287.711 17.852,287.093 17.600,286.593 17.600 C 286.093 17.600,285.260 17.153,284.742 16.607 C 284.161 15.995,283.340 15.606,282.600 15.594 C 281.940 15.583,281.051 15.310,280.624 14.987 C 280.196 14.664,279.544 14.400,279.173 14.400 C 278.802 14.400,278.274 14.130,278.000 13.800 C 277.726 13.470,277.093 13.200,276.594 13.200 C 276.094 13.200,275.582 12.930,275.455 12.600 C 275.329 12.270,274.814 11.994,274.313 11.987 C 273.811 11.980,273.051 11.710,272.624 11.387 C 272.196 11.064,271.419 10.800,270.895 10.800 C 270.371 10.800,269.673 10.530,269.343 10.200 C 269.013 9.870,268.098 9.600,267.309 9.600 C 266.396 9.600,265.399 9.237,264.564 8.600 C 263.620 7.880,262.756 7.600,261.476 7.600 C 260.383 7.600,259.506 7.369,259.200 7.000 C 258.926 6.670,258.385 6.400,257.997 6.400 C 257.609 6.400,256.776 6.131,256.146 5.802 C 255.516 5.474,254.347 5.204,253.549 5.202 C 252.750 5.201,251.874 4.930,251.600 4.600 C 251.326 4.270,250.685 4.000,250.175 4.000 C 249.665 4.000,249.152 3.847,249.036 3.659 C 248.921 3.472,247.629 3.206,246.167 3.070 C 244.704 2.933,243.252 2.609,242.939 2.349 C 242.626 2.089,240.576 1.790,238.385 1.685 C 236.193 1.579,234.400 1.354,234.400 1.185 C 234.400 0.263,169.569 -0.520,169.003 0.395 M212.400 84.019 C 223.721 86.043,234.646 90.867,243.000 97.528 C 244.540 98.756,246.581 100.380,247.537 101.137 C 253.357 105.750,262.800 120.781,262.800 125.434 C 262.800 128.903,265.556 134.400,267.296 134.400 C 269.890 134.400,273.866 137.927,275.154 141.370 C 276.353 144.575,276.499 174.536,275.334 178.262 C 274.335 181.455,271.397 184.538,268.656 185.270 C 265.729 186.052,264.800 187.109,264.800 189.658 C 264.800 190.811,264.503 193.417,264.140 195.450 L 263.480 199.146 265.440 201.566 C 271.491 209.035,269.433 218.411,261.053 221.546 C 247.711 226.538,238.626 207.030,250.934 199.818 C 255.432 197.181,255.574 196.039,255.578 162.400 C 255.580 146.736,255.424 135.557,255.191 134.600 C 254.977 133.720,254.455 131.452,254.031 129.559 C 252.179 121.283,246.687 112.839,239.000 106.451 C 235.213 103.304,233.353 102.052,228.280 99.235 C 226.433 98.210,219.827 95.600,219.079 95.600 C 218.782 95.600,217.204 95.118,215.570 94.528 C 210.868 92.832,192.139 92.846,186.400 94.550 C 168.735 99.795,157.501 108.389,150.661 121.890 C 146.821 129.470,146.304 133.904,146.022 161.658 C 145.808 182.715,145.771 183.549,145.008 184.391 C 141.061 188.751,129.948 185.957,127.065 179.880 C 126.096 177.839,126.007 142.320,126.966 140.466 C 128.530 137.441,130.382 135.978,134.739 134.325 C 137.052 133.447,138.372 131.539,138.391 129.047 C 138.405 127.235,141.508 118.637,143.460 115.000 C 144.599 112.880,146.941 109.474,149.200 106.653 C 150.410 105.143,151.663 103.544,151.984 103.101 C 153.981 100.342,163.155 93.940,169.372 90.965 C 183.826 84.048,198.928 81.611,212.400 84.019 M210.936 100.026 C 227.838 102.895,238.852 112.244,243.653 127.800 L 244.888 131.800 245.057 143.400 C 245.150 149.780,245.220 155.418,245.213 155.929 C 245.205 156.518,245.788 157.387,246.805 158.300 C 248.930 160.207,249.600 162.509,249.600 167.896 C 249.600 178.608,247.260 184.592,238.612 196.000 C 237.862 196.990,236.866 198.970,236.399 200.400 C 232.986 210.859,225.039 220.617,216.171 225.238 C 200.965 233.161,184.927 229.012,172.733 214.000 C 170.701 211.498,166.993 204.683,166.204 202.000 C 165.538 199.736,163.618 196.088,162.204 194.400 C 152.535 182.864,148.940 165.161,154.921 158.541 L 156.319 156.993 156.562 146.196 C 156.769 136.974,156.944 134.728,157.764 130.794 C 158.697 126.313,159.000 125.403,161.085 120.800 C 163.261 115.998,167.746 110.695,172.536 107.264 C 175.464 105.167,177.437 104.144,183.122 101.776 C 188.797 99.412,202.311 98.562,210.936 100.026 M166.279 224.200 C 167.462 225.029,168.205 227.472,169.566 235.000 C 170.154 238.257,171.620 244.043,172.438 246.336 C 172.857 247.510,173.200 248.851,173.200 249.315 C 173.200 249.778,174.027 252.597,175.037 255.579 C 180.006 270.237,184.637 279.677,192.686 291.548 C 200.425 302.964,200.793 303.138,205.168 297.454 C 209.572 291.732,219.600 275.517,219.600 274.117 C 219.600 273.983,220.351 272.244,221.268 270.251 C 222.840 266.839,223.771 264.502,225.432 259.800 C 227.791 253.119,228.149 251.939,230.767 242.200 C 231.240 240.440,231.806 237.865,232.026 236.478 C 232.245 235.090,232.671 233.200,232.972 232.278 C 233.273 231.355,233.713 229.449,233.950 228.042 C 234.665 223.792,236.407 222.996,240.507 225.046 C 243.720 226.652,245.534 227.475,248.800 228.811 C 250.450 229.486,252.610 230.381,253.600 230.801 C 254.590 231.221,258.100 232.672,261.400 234.025 C 280.809 241.985,290.924 250.537,297.566 264.603 C 298.500 266.581,299.430 268.512,299.632 268.894 C 302.013 273.391,304.400 284.989,304.400 292.064 L 304.400 298.263 303.214 300.054 C 301.888 302.056,299.145 304.204,297.370 304.631 C 296.726 304.786,295.677 305.176,295.039 305.498 C 294.400 305.820,292.510 306.312,290.839 306.590 C 289.167 306.869,286.180 307.386,284.200 307.741 C 270.774 310.142,259.726 311.767,251.200 312.595 C 248.230 312.883,244.720 313.308,243.400 313.539 C 242.080 313.770,238.300 314.156,235.000 314.398 C 231.700 314.640,226.300 315.040,223.000 315.288 C 215.240 315.869,188.050 315.865,179.800 315.281 C 176.280 315.031,170.610 314.634,167.200 314.397 C 163.790 314.160,160.018 313.793,158.817 313.581 C 157.617 313.370,153.837 312.923,150.417 312.589 C 146.998 312.256,142.760 311.727,141.000 311.415 C 139.240 311.103,136.125 310.652,134.078 310.413 C 132.031 310.174,129.241 309.724,127.878 309.413 C 126.515 309.102,123.628 308.654,121.463 308.418 C 119.297 308.182,117.227 307.831,116.863 307.640 C 116.498 307.448,114.604 307.081,112.653 306.825 C 99.586 305.104,96.170 300.270,97.938 285.999 C 100.418 265.983,111.227 249.156,127.400 240.137 C 130.871 238.202,135.322 236.000,135.764 236.000 C 135.882 236.000,136.928 235.563,138.089 235.030 C 142.505 233.000,145.957 231.600,146.543 231.600 C 146.879 231.600,147.256 231.433,147.382 231.229 C 147.508 231.025,148.284 230.645,149.106 230.385 C 150.937 229.805,154.717 228.265,157.400 227.007 C 162.684 224.527,164.517 223.735,165.211 223.632 C 165.327 223.614,165.808 223.870,166.279 224.200 M210.407 239.068 C 211.877 239.936,212.558 241.254,212.268 242.667 C 212.140 243.290,211.595 246.070,211.057 248.843 C 209.501 256.868,209.151 257.242,202.937 257.520 C 194.615 257.892,192.568 257.054,191.760 252.943 C 191.506 251.654,191.007 249.160,190.649 247.400 C 189.535 241.910,189.799 239.957,191.800 238.862 C 193.222 238.084,209.038 238.259,210.407 239.068 M207.198 259.700 C 210.037 261.146,211.381 265.408,211.392 273.000 C 211.401 279.343,211.413 279.305,206.751 287.200 C 205.517 289.290,204.076 291.808,203.548 292.796 C 201.851 295.973,199.959 295.560,197.625 291.504 C 196.706 289.907,195.693 288.150,195.375 287.600 C 195.056 287.050,193.598 284.260,192.135 281.400 L 189.475 276.200 189.945 272.930 C 190.203 271.131,190.771 268.543,191.207 267.178 C 191.643 265.813,192.000 264.188,192.000 263.567 C 192.000 259.208,201.490 256.794,207.198 259.700 " stroke="none" fill="#0095da" fill-rule="evenodd"></path><path id="path3" d="M190.600 84.059 C 181.010 85.761,169.815 89.953,162.772 94.479 C 159.965 96.283,152.739 102.058,151.984 103.101 C 151.663 103.544,150.410 105.143,149.200 106.653 C 146.941 109.474,144.599 112.880,143.460 115.000 C 141.508 118.637,138.405 127.235,138.391 129.047 C 138.372 131.539,137.052 133.447,134.739 134.325 C 130.382 135.978,128.530 137.441,126.966 140.466 C 126.007 142.320,126.096 177.839,127.065 179.880 C 129.948 185.957,141.061 188.751,145.008 184.391 C 145.771 183.549,145.808 182.715,146.022 161.658 C 146.304 133.904,146.821 129.470,150.661 121.890 C 157.501 108.389,168.735 99.795,186.400 94.550 C 192.139 92.846,210.868 92.832,215.570 94.528 C 217.204 95.118,218.782 95.600,219.079 95.600 C 219.827 95.600,226.433 98.210,228.280 99.235 C 233.353 102.052,235.213 103.304,239.000 106.451 C 246.687 112.839,252.179 121.283,254.031 129.559 C 254.455 131.452,254.977 133.720,255.191 134.600 C 255.424 135.557,255.580 146.736,255.578 162.400 C 255.574 196.039,255.432 197.181,250.934 199.818 C 238.626 207.030,247.711 226.538,261.053 221.546 C 269.433 218.411,271.491 209.035,265.440 201.566 L 263.480 199.146 264.140 195.450 C 264.503 193.417,264.800 190.811,264.800 189.658 C 264.800 187.109,265.729 186.052,268.656 185.270 C 271.397 184.538,274.335 181.455,275.334 178.262 C 276.499 174.536,276.353 144.575,275.154 141.370 C 273.866 137.927,269.890 134.400,267.296 134.400 C 265.556 134.400,262.800 128.903,262.800 125.434 C 262.800 120.781,253.357 105.750,247.537 101.137 C 246.581 100.380,244.540 98.756,243.000 97.528 C 228.675 86.104,208.414 80.896,190.600 84.059 M210.800 85.379 C 213.967 85.647,221.053 87.397,223.800 88.590 C 224.460 88.877,225.450 89.239,226.000 89.396 C 229.602 90.421,237.446 95.037,243.455 99.667 C 253.201 107.176,260.875 119.365,262.189 129.420 C 262.510 131.876,263.862 134.404,265.206 135.063 C 265.753 135.332,267.213 135.934,268.450 136.402 C 270.999 137.365,272.431 138.675,273.479 141.000 C 274.402 143.048,274.810 173.233,273.971 177.400 C 273.358 180.445,270.268 183.749,267.613 184.198 C 264.298 184.758,264.047 185.253,262.621 194.023 C 261.765 199.290,261.759 199.253,263.963 201.836 C 271.015 210.100,267.123 220.573,257.000 220.573 C 246.344 220.573,242.453 207.148,251.417 201.308 C 253.974 199.642,255.424 198.021,256.059 196.121 C 256.905 193.589,257.041 135.542,256.210 132.033 C 255.097 127.337,254.490 125.345,253.689 123.758 C 253.256 122.901,252.768 121.750,252.603 121.200 C 250.644 114.675,239.079 103.341,229.000 98.069 C 218.916 92.796,203.431 89.874,194.520 91.564 C 193.464 91.764,191.250 92.148,189.600 92.417 C 169.068 95.759,150.559 111.767,146.143 130.000 C 144.884 135.198,144.705 138.577,144.554 160.000 C 144.470 171.990,144.304 182.217,144.186 182.726 C 143.489 185.734,134.723 185.459,131.043 182.313 C 127.478 179.266,127.600 180.055,127.600 160.110 C 127.600 138.673,127.572 138.766,134.813 135.833 C 137.993 134.545,138.953 133.462,139.424 130.634 C 139.573 129.735,140.016 128.100,140.408 127.000 C 140.800 125.900,141.240 124.472,141.386 123.827 C 141.532 123.182,142.000 121.933,142.426 121.052 C 142.852 120.171,143.200 119.259,143.201 119.025 C 143.204 117.646,147.861 110.310,151.598 105.799 C 156.843 99.467,166.213 93.333,176.695 89.367 C 186.917 85.500,197.539 84.258,210.800 85.379 M189.922 100.173 C 187.130 100.660,184.070 101.381,183.122 101.776 C 177.437 104.144,175.464 105.167,172.536 107.264 C 167.746 110.695,163.261 115.998,161.085 120.800 C 159.000 125.403,158.697 126.313,157.764 130.794 C 156.944 134.728,156.769 136.974,156.562 146.196 L 156.319 156.993 154.921 158.541 C 152.585 161.126,152.274 162.316,152.291 168.600 C 152.317 177.969,155.605 186.528,162.204 194.400 C 163.618 196.088,165.538 199.736,166.204 202.000 C 166.993 204.683,170.701 211.498,172.733 214.000 C 184.927 229.012,200.965 233.161,216.171 225.238 C 225.039 220.617,232.986 210.859,236.399 200.400 C 236.866 198.970,237.862 196.990,238.612 196.000 C 247.260 184.592,249.600 178.608,249.600 167.896 C 249.600 162.509,248.930 160.207,246.805 158.300 C 245.788 157.387,245.205 156.518,245.213 155.929 C 245.220 155.418,245.150 149.780,245.057 143.400 L 244.888 131.800 243.653 127.800 C 239.706 115.013,230.882 105.837,218.638 101.790 C 210.661 99.152,199.404 98.519,189.922 100.173 M209.600 101.399 C 224.317 103.203,234.748 110.724,240.712 123.832 C 241.420 125.389,242.000 126.956,242.000 127.312 C 242.000 127.669,242.295 129.005,242.657 130.280 C 243.172 132.101,243.366 135.289,243.557 145.093 L 243.800 157.585 245.664 159.296 C 248.002 161.442,248.153 162.185,247.897 170.315 C 247.618 179.155,245.315 184.970,238.700 193.530 C 236.283 196.657,235.717 197.707,234.348 201.600 C 229.353 215.810,218.664 224.933,203.881 227.606 C 195.680 229.089,184.119 224.360,176.789 216.525 C 173.033 212.510,167.216 202.879,167.196 200.644 C 167.186 199.528,165.055 195.814,162.447 192.371 C 159.097 187.947,155.789 181.452,154.962 177.674 C 152.703 167.368,153.105 162.404,156.466 159.085 C 157.899 157.670,158.003 157.407,158.051 155.085 C 158.080 153.718,158.167 150.080,158.246 147.000 C 158.324 143.920,158.388 140.410,158.388 139.200 C 158.380 113.036,179.196 97.672,209.600 101.399 M164.400 223.860 C 163.797 224.058,161.122 225.260,157.400 227.007 C 154.717 228.265,150.937 229.805,149.106 230.385 C 148.284 230.645,147.508 231.025,147.382 231.229 C 147.256 231.433,146.879 231.600,146.543 231.600 C 145.957 231.600,142.505 233.000,138.089 235.030 C 136.928 235.563,135.882 236.000,135.764 236.000 C 133.303 236.000,121.024 243.731,116.463 248.153 C 99.855 264.253,91.351 295.860,101.718 302.952 C 104.569 304.902,108.428 306.268,112.653 306.825 C 114.604 307.081,116.498 307.448,116.863 307.640 C 117.227 307.831,119.297 308.182,121.463 308.418 C 123.628 308.654,126.515 309.102,127.878 309.413 C 129.241 309.724,132.031 310.174,134.078 310.413 C 136.125 310.652,139.240 311.103,141.000 311.415 C 142.760 311.727,146.998 312.256,150.417 312.589 C 153.837 312.923,157.617 313.370,158.817 313.581 C 160.018 313.793,163.790 314.160,167.200 314.397 C 170.610 314.634,176.280 315.031,179.800 315.281 C 188.050 315.865,215.240 315.869,223.000 315.288 C 226.300 315.040,231.700 314.640,235.000 314.398 C 238.300 314.156,242.080 313.770,243.400 313.539 C 244.720 313.308,248.230 312.883,251.200 312.595 C 259.726 311.767,270.774 310.142,284.200 307.741 C 286.180 307.386,289.167 306.869,290.839 306.590 C 292.510 306.312,294.400 305.820,295.039 305.498 C 295.677 305.176,296.726 304.786,297.370 304.631 C 299.145 304.204,301.888 302.056,303.214 300.054 L 304.400 298.263 304.400 292.064 C 304.400 284.989,302.013 273.391,299.632 268.894 C 299.430 268.512,298.500 266.581,297.566 264.603 C 290.924 250.537,280.809 241.985,261.400 234.025 C 258.100 232.672,254.590 231.221,253.600 230.801 C 252.610 230.381,250.450 229.486,248.800 228.811 C 245.534 227.475,243.720 226.652,240.507 225.046 C 236.407 222.996,234.665 223.792,233.950 228.042 C 233.713 229.449,233.273 231.355,232.972 232.278 C 232.671 233.200,232.245 235.090,232.026 236.478 C 231.806 237.865,231.240 240.440,230.767 242.200 C 228.149 251.939,227.791 253.119,225.432 259.800 C 223.771 264.502,222.840 266.839,221.268 270.251 C 220.351 272.244,219.600 273.983,219.600 274.117 C 219.600 275.517,209.572 291.732,205.168 297.454 C 200.793 303.138,200.425 302.964,192.686 291.548 C 184.637 279.677,180.006 270.237,175.037 255.579 C 174.027 252.597,173.200 249.778,173.200 249.315 C 173.200 248.851,172.857 247.510,172.438 246.336 C 171.620 244.043,170.154 238.257,169.566 235.000 C 168.205 227.472,167.462 225.029,166.279 224.200 C 165.368 223.562,165.329 223.555,164.400 223.860 M165.933 225.900 C 166.132 226.285,166.418 227.320,166.568 228.200 C 168.213 237.817,172.893 254.745,176.410 263.800 C 177.094 265.560,177.854 267.540,178.099 268.200 C 180.914 275.769,190.904 292.503,196.816 299.550 C 200.543 303.994,201.854 303.918,205.690 299.037 C 210.711 292.649,220.800 276.422,220.800 274.734 C 220.800 274.500,221.241 273.474,221.780 272.454 C 222.742 270.633,223.104 269.812,225.072 265.000 C 228.906 255.625,232.876 241.629,235.000 230.001 C 235.916 224.984,236.346 224.688,240.072 226.506 C 244.558 228.696,248.433 230.415,250.200 231.001 C 251.080 231.293,253.150 232.105,254.800 232.806 C 261.858 235.806,263.482 236.481,264.914 237.013 C 265.747 237.322,266.822 237.850,267.303 238.187 C 267.784 238.524,268.439 238.800,268.758 238.800 C 269.497 238.800,277.667 243.578,279.868 245.297 C 280.785 246.014,282.507 247.346,283.694 248.258 C 289.923 253.043,297.619 265.739,300.389 275.800 C 302.985 285.227,303.699 296.092,301.929 299.240 C 300.246 302.236,294.691 304.712,287.600 305.628 C 285.730 305.869,283.210 306.314,282.000 306.616 C 280.790 306.918,278.090 307.360,276.000 307.599 C 273.910 307.838,271.030 308.282,269.600 308.586 C 268.170 308.890,264.930 309.345,262.400 309.597 C 259.870 309.849,257.163 310.220,256.383 310.421 C 255.604 310.622,251.914 311.061,248.183 311.397 C 241.864 311.966,236.944 312.521,233.600 313.043 C 223.215 314.665,177.704 314.386,165.000 312.622 C 162.580 312.286,158.260 311.819,155.400 311.585 C 152.540 311.350,148.670 310.908,146.800 310.602 C 144.930 310.297,141.600 309.841,139.400 309.590 C 137.200 309.338,134.086 308.874,132.479 308.559 C 130.873 308.243,128.083 307.812,126.279 307.601 C 124.476 307.390,121.740 306.942,120.200 306.606 C 118.660 306.269,115.939 305.829,114.153 305.627 C 108.153 304.949,101.186 301.842,100.044 299.336 C 98.624 296.220,98.964 283.171,100.576 278.889 C 100.884 278.070,101.253 276.704,101.395 275.853 C 101.537 275.002,102.092 273.349,102.627 272.179 C 103.162 271.009,103.600 269.851,103.600 269.606 C 103.600 267.088,111.566 255.226,116.792 249.963 C 122.732 243.981,127.317 241.180,139.600 236.028 C 143.890 234.229,148.413 232.316,149.650 231.778 C 150.888 231.240,152.040 230.800,152.210 230.800 C 152.381 230.800,153.528 230.332,154.760 229.759 C 155.992 229.187,157.990 228.275,159.200 227.734 C 160.410 227.192,162.030 226.420,162.800 226.018 C 164.618 225.069,165.487 225.036,165.933 225.900 M191.800 238.862 C 189.799 239.957,189.535 241.910,190.649 247.400 C 191.007 249.160,191.506 251.654,191.760 252.943 C 192.568 257.054,194.615 257.892,202.937 257.520 C 209.151 257.242,209.501 256.868,211.057 248.843 C 211.595 246.070,212.140 243.290,212.268 242.667 C 212.558 241.254,211.877 239.936,210.407 239.068 C 209.038 238.259,193.222 238.084,191.800 238.862 M209.812 240.909 C 211.010 241.939,210.972 242.396,208.969 250.958 C 207.767 256.098,208.262 255.800,200.945 255.800 C 193.439 255.800,193.598 255.904,192.878 250.501 C 192.614 248.518,192.129 246.131,191.799 245.197 C 190.136 240.482,190.950 240.037,201.278 240.016 C 208.489 240.001,208.793 240.032,209.812 240.909 M194.558 259.613 C 192.811 260.478,192.000 261.731,192.000 263.567 C 192.000 264.188,191.643 265.813,191.207 267.178 C 190.771 268.543,190.203 271.131,189.945 272.930 L 189.475 276.200 192.135 281.400 C 193.598 284.260,195.056 287.050,195.375 287.600 C 195.693 288.150,196.706 289.907,197.625 291.504 C 199.959 295.560,201.851 295.973,203.548 292.796 C 204.076 291.808,205.517 289.290,206.751 287.200 C 211.413 279.305,211.401 279.343,211.392 273.000 C 211.381 265.408,210.037 261.146,207.198 259.700 C 204.698 258.427,197.060 258.375,194.558 259.613 M207.219 261.059 C 208.671 262.511,209.989 268.210,209.995 273.055 C 210.001 278.545,209.384 280.401,205.621 286.211 C 204.619 287.757,203.364 289.962,202.832 291.111 C 201.255 294.513,200.622 294.177,197.332 288.200 C 190.636 276.036,190.518 275.640,192.005 270.295 C 192.448 268.703,192.998 266.237,193.227 264.815 C 193.666 262.083,194.067 261.330,195.386 260.758 C 196.534 260.260,206.678 260.518,207.219 261.059 " stroke="none" fill="#77c7eb" fill-rule="evenodd"></path><path id="path4" d="M245.700 3.076 C 246.085 3.176,246.715 3.176,247.100 3.076 C 247.485 2.975,247.170 2.893,246.400 2.893 C 245.630 2.893,245.315 2.975,245.700 3.076 M33.092 85.042 C 32.931 85.202,32.800 85.609,32.800 85.947 C 32.800 86.397,32.918 86.442,33.245 86.115 C 33.490 85.870,33.621 85.463,33.537 85.210 C 33.452 84.957,33.252 84.881,33.092 85.042 M368.825 89.800 C 368.825 90.020,369.090 90.549,369.413 90.976 C 369.736 91.404,370.000 91.573,370.000 91.353 C 370.000 91.133,369.736 90.604,369.413 90.176 C 369.090 89.749,368.825 89.580,368.825 89.800 M384.856 119.745 C 385.139 120.375,385.442 120.673,385.531 120.406 C 385.620 120.140,385.389 119.624,385.018 119.261 C 384.386 118.642,384.376 118.673,384.856 119.745 M395.515 151.600 C 395.612 152.260,395.760 152.800,395.845 152.800 C 395.930 152.800,396.000 152.260,396.000 151.600 C 396.000 150.940,395.851 150.400,395.669 150.400 C 395.487 150.400,395.418 150.940,395.515 151.600 M397.212 158.400 C 397.212 158.730,397.387 159.270,397.600 159.600 C 397.945 160.133,397.988 160.133,397.988 159.600 C 397.988 159.270,397.813 158.730,397.600 158.400 C 397.255 157.867,397.212 157.867,397.212 158.400 M0.493 167.600 C 0.493 168.370,0.575 168.685,0.676 168.300 C 0.776 167.915,0.776 167.285,0.676 166.900 C 0.575 166.515,0.493 166.830,0.493 167.600 M399.324 174.600 C 399.326 175.920,399.401 176.412,399.490 175.693 C 399.579 174.974,399.577 173.894,399.486 173.293 C 399.395 172.692,399.322 173.280,399.324 174.600 M399.320 224.800 C 399.320 226.010,399.395 226.505,399.487 225.900 C 399.578 225.295,399.578 224.305,399.487 223.700 C 399.395 223.095,399.320 223.590,399.320 224.800 M3.200 248.953 C 3.200 249.283,3.380 249.664,3.600 249.800 C 3.820 249.936,4.000 249.777,4.000 249.447 C 4.000 249.117,3.820 248.736,3.600 248.600 C 3.380 248.464,3.200 248.623,3.200 248.953 M4.000 251.502 C 4.000 251.722,4.270 252.126,4.600 252.400 C 4.935 252.678,5.200 252.721,5.200 252.498 C 5.200 252.278,4.930 251.874,4.600 251.600 C 4.265 251.322,4.000 251.279,4.000 251.502 M390.000 266.424 C 390.000 266.657,389.859 266.760,389.686 266.653 C 389.513 266.546,389.371 266.818,389.371 267.256 C 389.371 268.004,389.403 268.010,389.886 267.350 C 390.411 266.632,390.558 266.000,390.200 266.000 C 390.090 266.000,390.000 266.191,390.000 266.424 M14.676 280.278 C 14.563 280.460,14.730 280.963,15.047 281.397 C 15.611 282.167,15.620 282.165,15.489 281.303 C 15.331 280.270,14.965 279.809,14.676 280.278 M374.992 299.106 C 374.767 299.268,374.359 299.940,374.085 300.600 C 373.546 301.899,374.339 301.146,375.243 299.500 C 375.663 298.736,375.614 298.658,374.992 299.106 M31.200 311.151 C 31.200 311.344,31.470 311.726,31.800 312.000 C 32.215 312.344,32.400 312.359,32.400 312.049 C 32.400 311.802,32.209 311.600,31.976 311.600 C 31.743 311.600,31.664 311.420,31.800 311.200 C 31.936 310.980,31.857 310.800,31.624 310.800 C 31.391 310.800,31.200 310.958,31.200 311.151 M125.200 387.157 C 125.200 387.354,125.485 387.624,125.833 387.757 C 126.811 388.133,126.941 388.051,126.400 387.400 C 125.848 386.735,125.200 386.604,125.200 387.157 M243.213 396.691 C 242.689 397.282,242.703 397.323,243.346 397.076 C 243.742 396.924,244.141 396.800,244.233 396.800 C 244.325 396.800,244.400 396.620,244.400 396.400 C 244.400 395.812,243.881 395.939,243.213 396.691 M158.400 397.600 C 158.730 397.813,159.270 397.988,159.600 397.988 C 160.133 397.988,160.133 397.945,159.600 397.600 C 159.270 397.387,158.730 397.212,158.400 397.212 C 157.867 397.212,157.867 397.255,158.400 397.600 M172.900 399.487 C 173.505 399.578,174.495 399.578,175.100 399.487 C 175.705 399.395,175.210 399.320,174.000 399.320 C 172.790 399.320,172.295 399.395,172.900 399.487 M224.100 399.487 C 224.705 399.578,225.695 399.578,226.300 399.487 C 226.905 399.395,226.410 399.320,225.200 399.320 C 223.990 399.320,223.495 399.395,224.100 399.487 " stroke="none" fill="#00ffff" fill-rule="evenodd"></path></g></svg>